<svg id="Layer_1" data-name="Layer 1" xmlns="http://www.w3.org/2000/svg" xmlns:xlink="http://www.w3.org/1999/xlink" viewBox="0 0 152.59 158.53"><defs><style>.cls-1{fill:none;stroke:#332c5f;stroke-width:2px;}.cls-1,.cls-2{stroke-miterlimit:10;}.cls-2{stroke-width:4px;fill:url(#linear-gradient);stroke:url(#linear-gradient-2);}</style><linearGradient id="linear-gradient" x1="75.19" y1="16.02" x2="75.19" y2="184.37" gradientTransform="matrix(1, 0, 0, -1, 0, 176.38)" gradientUnits="userSpaceOnUse"><stop offset="0.32" stop-color="#7c67aa"/><stop offset="0.47" stop-color="#8f77b2"/><stop offset="0.75" stop-color="#c4a1c8"/><stop offset="0.9" stop-color="#e0b8cf"/></linearGradient><linearGradient id="linear-gradient-2" x1="75.19" y1="151.34" x2="75.19" y2="4.07" gradientTransform="matrix(1, 0, 0, 1, 0, 0)" xlink:href="#linear-gradient"/></defs><title>tj</title><polygon class="cls-1" points="30.29 47.76 72.43 47.76 72.43 57.69 57.08 57.69 56.77 107.65 44.13 105.85 45.34 58.59 30.29 57.69 30.29 47.76"/><polyline class="cls-1" points="120.1 87.09 120.1 47.3 98.13 47.3 98.13 57.53 109.11 58.44 109.11 85.22"/><path class="cls-1" d="M69.68,89.57l12.53-4.69"/><path class="cls-1" d="M81.12,85.58c.32.56.78,1.38,1.36,2.37,2,3.45,3,5.18,4,6,2.31,2.11,5.39,2.22,7.13,2.28a15.81,15.81,0,0,0,11-4.23,16.47,16.47,0,0,0,4.55-7.34"/><path class="cls-1" d="M120.1,87.09a13.3,13.3,0,0,1-.32,3,14.27,14.27,0,0,1-1.23,3.36,22.45,22.45,0,0,1-3.61,5.27,26.15,26.15,0,0,1-4,3.49,35.06,35.06,0,0,1-5.79,3.58,24.17,24.17,0,0,1-29.06-6.56,27.2,27.2,0,0,1-5.78-11.12"/><path class="cls-2" d="M124.79,123.06a69.9,69.9,0,1,0-4.09,4.11L142,148.49a2.9,2.9,0,0,0,4.1-4.1ZM28,121.21a64.06,64.06,0,1,1,90.59,0,64.13,64.13,0,0,1-90.59,0Z"/></svg>