<svg id="Layer_1" data-name="Layer 1" xmlns="http://www.w3.org/2000/svg" xmlns:xlink="http://www.w3.org/1999/xlink" viewBox="0 0 287.39 200"><defs><style>.cls-1,.cls-2{stroke-miterlimit:10;}.cls-1{stroke-width:4px;fill:url(#linear-gradient);stroke:url(#linear-gradient-2);}.cls-2{fill:none;stroke:#332c5f;stroke-width:2px;}</style><linearGradient id="linear-gradient" x1="236.08" y1="57.87" x2="236.08" y2="143.85" gradientTransform="matrix(1, 0, 0, -1, 0, 202)" gradientUnits="userSpaceOnUse"><stop offset="0.32" stop-color="#7c67aa"/><stop offset="0.47" stop-color="#8f77b2"/><stop offset="0.75" stop-color="#c4a1c8"/><stop offset="0.9" stop-color="#e0b8cf"/></linearGradient><linearGradient id="linear-gradient-2" x1="236.08" y1="140.5" x2="236.08" y2="63.33" gradientTransform="matrix(1, 0, 0, 1, 0, 0)" xlink:href="#linear-gradient"/></defs><title>tjjj</title><path class="cls-1" d="M261.41,125.07a35.71,35.71,0,1,0-2.09,2.1l10.89,10.89A1.48,1.48,0,0,0,272.3,136ZM212,124.13a32.72,32.72,0,1,1,46.27,0,32.75,32.75,0,0,1-46.27,0Z"/><polyline class="cls-2" points="250.2 106.71 250.2 77.6 234.13 77.6 234.13 85.09 242.16 85.75 242.16 105.34"/><path class="cls-2" d="M213.32,108.52l9.17-3.43"/><path class="cls-2" d="M221.69,105.6c.23.42.57,1,1,1.74,1.49,2.52,2.23,3.79,2.93,4.43a7.86,7.86,0,0,0,5.21,1.66,11.54,11.54,0,0,0,8-3.09,12.08,12.08,0,0,0,3.33-5.37"/><path class="cls-2" d="M250.2,106.71a9.43,9.43,0,0,1-.23,2.23,10.87,10.87,0,0,1-.9,2.46,16.45,16.45,0,0,1-2.64,3.85,18.94,18.94,0,0,1-2.89,2.56,26.33,26.33,0,0,1-4.24,2.62,17.68,17.68,0,0,1-21.26-4.8,19.93,19.93,0,0,1-4.22-8.14"/><polygon class="cls-2" points="24.73 77.82 55.56 77.82 55.56 85.09 44.33 85.09 44.11 121.64 34.86 120.31 35.74 85.75 24.73 85.09 24.73 77.82"/><path class="cls-2" d="M92.55,77.82l8.81-.22v44H92.55Z"/><polyline class="cls-2" points="79.56 117.45 79.56 120.75 87.49 120.75 87.49 91.47 79.56 91.47 79.56 94.99"/><path class="cls-2" d="M114.35,108.2l11.82-8.8"/><path class="cls-2" d="M127.94,109.39l1.37,1.25,5.51,5"/><path class="cls-2" d="M147.6,102.7v18.06l-8.15.88V91.47h8.15v4.3a10,10,0,0,1,3.52-3.25c4.34-2.32,9.56-.4,12.44,1.69a15,15,0,0,1,5.16,7.28c.11.33.18.61.23.8"/><path class="cls-2" d="M183.49,110.63v-11h7.26V91.47h-6.38V81.34l-8.15,6v4.18H171.6v8.15H176q.1,6.54.22,13.1"/><path class="cls-2" d="M190.86,112.65l-.12,9.66"/><circle class="cls-2" cx="72.75" cy="107.13" r="6.81"/><path class="cls-2" d="M169,102.48v18.28h-8.14l-.09-17.28-.24-.86a7.08,7.08,0,0,0-12.88.53"/><path class="cls-2" d="M134.6,99.73a9.49,9.49,0,0,0,.55.79s-.57-.9-.87-1.53h0s-.18-.38-.36-.72a17,17,0,0,0-4.27-4.93,14.79,14.79,0,0,0-8.15-2.86c-6.69-.22-11.08,4.45-12.11,5.61a17.06,17.06,0,0,0-3.85,8.15,14.17,14.17,0,0,0,0,6.39,15.31,15.31,0,0,0,2.2,4.73,11,11,0,0,0,2.2,2.64,11.94,11.94,0,0,0,2.76,1.65,19.4,19.4,0,0,0,3.63,1.44,18.41,18.41,0,0,0,5.94.55,15.48,15.48,0,0,0,5.73-1.1,14,14,0,0,0,3.85-2.54,17.33,17.33,0,0,0,3-3.33"/><path class="cls-2" d="M125.14,99.73a6.7,6.7,0,0,0-2-1,6.9,6.9,0,0,0-3.13-.17,6.71,6.71,0,0,0-3.65,1.82,6.16,6.16,0,0,0-1.31,7.06"/><path class="cls-2" d="M191,121.29a13.61,13.61,0,0,1-10.45-2.63,13,13,0,0,1-4.29-6.49"/><path class="cls-2" d="M176.2,111.5c0,.41,0,.81,0,1.22"/><path class="cls-2" d="M79,93.67A11,11,0,0,0,73.83,91c-6.46-1.26-13.46,4.09-15,9.92a9.79,9.79,0,0,0-.36,2.19c0,.55-.2,1.71-.22,3.24a28.51,28.51,0,0,0,.11,3.26,14.44,14.44,0,0,0,6.72,10,14.14,14.14,0,0,0,7,2,8,8,0,0,0,4.85-1.1,7.35,7.35,0,0,0,2.44-3c.09-.2.16-.36.2-.48"/><line class="cls-2" x1="79.56" y1="120.76" x2="79.56" y2="116.79"/><path class="cls-2" d="M190.75,113.43a5.08,5.08,0,0,1-1.62.54,5,5,0,0,1-1.53,0,5.88,5.88,0,0,1-1.32-.37c-1.73-.75-2.75-3.28-2.79-3.39"/><line class="cls-2" x1="79.56" y1="91.47" x2="79.56" y2="93.87"/><path class="cls-2" d="M127.83,111l.6-.55s-2.83,3.58-5.67,3.31a4.16,4.16,0,0,1-2.4-1.24l14.4-10.71.66-.77"/></svg>